# xmcd
#
# Track frame offsets: 
#        150
#        17583
#        36845
#        50892
#        64113
#        82411
#        95525
#        113319
#        129699
#        141688
#        156129
#        172553
#        193639
#        210710
#        227667
#        247139
#        264536
#        283907
#
# Disc length: 3986 seconds
#
# Revision: 1
# Processed by: cddbd v1.4PL0 Copyright (c) Steve Scherf et al.
# Submitted via: ExactAudioCopy v0.95a3
#
DISCID=0c0f9012
DTITLE=Various Artist - Country Radio July 2003
DYEAR=2003
DGENRE=Country
TTITLE0=Alan Jackson and Jimmy Buffett - It's Five O'Clock Somewhere
TTITLE1=Rodney Atkins - Honestly (Write Me A List)
TTITLE2=Phil Vassar - Ultimate Love
TTITLE3=Marty Stuart and His Fabulous Superlatives - If There Ain't Ther
TTITLE3=e Ought'a Be
TTITLE4=Martina McBride - This One's For The Girls
TTITLE5=Dean Miller - The Gun Ain't Loaded
TTITLE6=Gary Allen - Tough Little Boys
TTITLE7=Patty Lovelass - Lovin' All Night
TTITLE8=Hometown News - First Second Chance
TTITLE9=Kenny Rogers - I'm Missing You
TTITLE10=The Warren Brothers - Break The Record
TTITLE11=Dixie Chicks - Godspeed (Sweet Dreams)
TTITLE12=Rick Trevino - In My Dreams
TTITLE13=Ashley Gearing - Can You Hear Me When I Talk To You?
TTITLE14=Daron Norwood - In God We Trust
TTITLE15=Dolly Parton - I'm Gone
TTITLE16=Matt Linsin - I Can, I Will, I Do
TTITLE17=Allison Paige - Send A Message
EXTD=
EXTT0=
EXTT1=
EXTT2=
EXTT3=
EXTT4=
EXTT5=
EXTT6=
EXTT7=
EXTT8=
EXTT9=
EXTT10=
EXTT11=
EXTT12=
EXTT13=
EXTT14=
EXTT15=
EXTT16=
EXTT17=
PLAYORDER=
